<?xml version="1.0" standalone="yes"?>
<svg xmlns="http://www.w3.org/2000/svg" width="448" height="532">
<path style="fill:#fefefe; stroke:none;" d="M0 0L0 294C1.45711 290.528 0.814083 286.702 1.46373 283C2.53913 276.872 4.2297 270.817 6.42515 265C16.5127 238.274 35.8111 216.688 59 200.438C70.3482 192.486 82.9698 186.334 96 181.692C102.035 179.542 112.088 178.474 116.581 173.721C120.644 169.424 121.339 161.482 123.025 156C127.099 142.75 131.515 129.62 137.309 117C156.522 75.1497 186.366 35.7368 228 14.2585C237.519 9.34766 247.539 5.73083 258 3.42438C310.218 -8.08887 355.87 23.4056 383.308 66C415.513 115.995 429.888 175.823 438.271 234C443.332 269.124 447 304.514 447 340C450.507 331.643 448 318.06 448 309L448 240L448 0L0 0z"/>
<path style="fill:#030303; stroke:none;" d="M133 449C152.456 460.072 174.545 467.758 195 476.861C219.862 487.925 244.725 498.891 270 509C295.989 519.394 322.936 528.83 351 531.086C375.245 533.034 403.605 530.25 423.996 515.405C437.245 505.76 441.734 490.454 444.246 475C448.986 445.839 448 415.479 448 386C448 298.917 443.261 207.471 412.424 125C397.846 86.0122 377.66 46.3088 343 21.4283C334.076 15.0224 324.425 9.82172 314 6.33331C244.253 -17.0049 178.793 37.9226 147.309 96C138.843 111.617 131.419 128.058 126.029 145C123.403 153.253 122.323 166.223 116.581 172.867C112.081 178.073 102.284 179.162 96 181.344C83.6321 185.639 72.0358 191.406 61 198.436C26.801 220.222 -0.507796 258.239 0.0185185 300C0.18921 313.544 3.53556 327.488 8.60417 340C19.6497 367.267 41.122 389.429 64 407.207C71.3871 412.947 79.135 418.245 87 423.308C90.466 425.539 95.6625 427.518 97.821 431.21C101.207 437.001 100.457 448.36 101.075 455C102.562 470.99 104.658 487.092 106.87 503C107.788 509.606 107.784 518.12 111.533 523.867C116.799 531.937 128.664 527.481 129.84 519C132.999 496.228 133 471.982 133 449z"/>
<path style="fill:#fefefe; stroke:none;" d="M168 169C188.93 171.645 209.351 174.865 229 183.012C269.264 199.705 304.216 229.414 321.573 270C328.652 286.553 332.416 304.157 334.075 322C336.028 343.011 335.146 365.785 325.395 385C311.917 411.559 280.757 422.204 253 413.964C243.791 411.23 230.359 405.395 227.696 395C225.442 386.2 236.048 381.25 240.79 375.961C247.555 368.416 250.965 357.84 252.562 348C259.856 303.04 240.748 249.224 203 222.59C193.234 215.699 182.502 210.659 171 207.428C167.722 206.507 161.747 204.367 158.419 205.693C156.059 206.633 155.387 209.842 154.721 212.001C152.899 217.904 151.339 223.967 150.014 230C144.344 255.804 142.794 281.904 139.715 308C136.812 332.597 135.01 358.234 135 383C134.997 389.582 131.272 401.657 135.028 407.471C138.055 412.158 146.193 414.843 151 417.247C163.237 423.366 175.422 429.605 188 434.999C222.361 449.734 257.024 463.233 292 476.424C303.555 480.781 315.284 484.761 327 488.667C333.007 490.669 339.667 493.589 346 494.222C356.692 495.292 359.455 478.603 360.996 471C366.393 444.374 366.649 416.091 365.985 389C364.148 314.007 358.138 239.04 345.25 165C340.961 140.359 335.261 115.433 326.424 92C322.235 80.8926 317.653 69.4723 310.32 60C305.821 54.1876 300.234 48.8442 293 46.7886C279.552 42.9675 260.764 51.871 249 57.7531C216.377 74.0648 194.59 104.317 180.14 137C175.554 147.372 170.567 157.903 168 169M95 380C97.8323 364.744 94.6461 349.285 95.0147 334C95.9354 295.816 96.5791 255.068 107 218C95.1965 220.805 83.5505 229.677 75 238.015C67.2648 245.557 60.4609 253.441 55.3094 263C38.1488 294.844 47.9276 330.308 69.9236 357C76.5617 365.055 85.0681 376.152 95 380M0 305L0 532L355 532C348.361 529.213 339.192 529.847 332 528.4C317.42 525.466 302.964 521.05 289 515.947C235.767 496.495 185.358 470.481 133 449C133 464.662 132.158 480.394 131.09 496C130.56 503.728 131.034 511.304 129.699 519C128.155 527.898 116.557 531.139 111.533 522.945C107.727 516.737 107.734 508.031 106.729 501C104.507 485.446 102.529 469.644 101.075 454C100.476 447.563 101.271 435.895 97.821 430.379C96.1322 427.679 92.608 426.202 90 424.575C85.2551 421.614 80.5843 418.484 76 415.28C61.9891 405.489 48.7525 394.526 37.0895 382C23.691 367.611 12.3178 350.711 6.00386 332C4.0357 326.168 2.53041 320.065 1.46373 314C0.922495 310.923 1.20924 307.881 0 305M447 427C447 453.242 449.028 490.594 428.711 510.572C419.992 519.144 408.461 523.427 397 526.975C388.739 529.532 380.638 530.999 372 531C378.678 533.802 388.784 532 396 532L448 532L448 459L448 438C448 434.298 448.441 430.435 447 427z"/>
</svg>
